<?xml version="1.0" encoding="utf-8"?>
<!-- Generator: Adobe Illustrator 17.1.0, SVG Export Plug-In . SVG Version: 6.00 Build 0)  -->
<!DOCTYPE svg PUBLIC "-//W3C//DTD SVG 1.1//EN" "http://www.w3.org/Graphics/SVG/1.1/DTD/svg11.dtd">
<svg version="1.1" id="Layer_1" xmlns="http://www.w3.org/2000/svg" xmlns:xlink="http://www.w3.org/1999/xlink" x="0px" y="0px"
	 viewBox="0 324 612 144" enable-background="new 0 324 612 144" xml:space="preserve">
<filter  height="200%" width="200%" id="inset-shadow" y="-50%" x="-50%">
	<feComponentTransfer  in="SourceAlpha">
		<feFuncA  type="table" tableValues="1 0"></feFuncA>
	</feComponentTransfer>
	<feGaussianBlur  stdDeviation="3"></feGaussianBlur>
	<feOffset  dx="2" result="offsetblur" dy="2"></feOffset>
	<feFlood  result="color" flood-color="rgb(20, 20, 20)"></feFlood>
	<feComposite  in2="offsetblur" operator="in"></feComposite>
	<feComposite  in2="SourceAlpha" operator="in"></feComposite>
	<feMerge>
		<feMergeNode  in="SourceGraphic"></feMergeNode>
		<feMergeNode></feMergeNode>
	</feMerge>
</filter>
<g filter="url(#inset-shadow)">
	<path fill="#ABA7A5" d="M541.3,414c0,7.9-1,11.6,8.4,12.1v2.4c-4.3-0.2-8.7-0.3-13-0.5c-4.7,0.2-9.2,0.3-13.9,0.5v-2.4
		c9-0.6,8.4-3.5,8.4-11.4v-15.3c0-8.2,0.3-20.1-11.1-20.1c-9.3,0-15.3,7.4-15.3,16.1V414c0,7.9-1.1,11.6,8.4,12.1v2.4
		c-4.3-0.2-8.7-0.3-13-0.5c-4.7,0.2-9.2,0.3-13.9,0.5v-2.4c9-0.6,8.4-3.5,8.4-11.4v-14.8c0-3.4,0-11.8-0.6-14.5
		c-1-4.3-4.2-3.9-8.1-3.9v-2.4c6.3-0.6,10.6-2.6,16.6-3.7l1.6,11h0.2c4.2-7.4,10.6-11,19.2-11c11.4,0,17.9,5.2,17.9,16.6L541.3,414
		L541.3,414z"/>
	<path fill="#ABA7A5" d="M595.9,429.7c-1.3-2.7-2.1-6-2.4-9.2c-5.2,6.3-10.6,9.2-18.7,9.2c-15.1,0-25.6-11.6-25.6-26.6
		c0-14.7,10.3-27.9,25.6-27.9c6.6,0,12.9,2.4,17.2,7.4v-19c0-7.2-0.3-11.1-9-11.3v-2.4l19.2-3.9v60.6c0,3.4,0,9.3,1.1,12.4
		c1.6,4.2,4.8,4,8.7,4v2.4L595.9,429.7z M591.9,391.3c0-7.6-7.2-12.2-14.3-12.2c-13,0-16.4,13.5-16.4,24c0,10.8,3.5,23.4,16.4,23.4
		c10.8,0,14.3-8.5,14.3-18V391.3z"/>
	<path fill="#ABA7A5" d="M25.9,397.3c-2.1,5.5-6.9,15.9-6.9,21.6c0,6.1,7.2,5.8,11.6,6.1v3.2c-5.3-0.2-10.5-0.5-15.8-0.6
		c-5,0.2-9.8,0.5-14.8,0.6V425c7.7-0.8,10.8-3.2,13.7-10.1c4-9.2,7.9-18.2,11.9-27.4l21.9-56h4.8l28.8,72.6
		c1.8,3.7,4.8,12.4,7.4,15.8c3.2,4.2,7.4,4.7,12.2,5.3v3.2c-6.8-0.2-13.5-0.5-20.3-0.6c-6.9,0.2-13.9,0.5-20.8,0.6v-3.2
		c4-0.2,11,0.2,11-5.5c0-3.5-1.6-7.9-2.9-11.1l-5.6-14.7H27.2L25.9,397.3z M60.6,389.2L44.8,349l-15.9,40.3H60.6z"/>
	<path fill="#ABA7A5" d="M123.7,413.6c0.2,7.9-1.3,11.6,8.1,12.1v2.4c-4.3-0.2-8.7-0.3-13-0.5c-4.3,0.2-9,0.5-13.5,0.5v-2.4
		c9-0.6,8.4-3.5,8.4-11.4v-14.8c0-3.4,0-11.8-0.6-14.5c-1-4.3-4.2-3.9-8.1-3.9v-2.4c6.3-0.6,10.6-2.6,16.6-3.7l1.3,9.7
		c4.5-6.1,10.3-9.7,18.2-9.7c7.1,0,14,2.6,16.4,9.7c4.2-6.3,10.6-9.7,18.2-9.7c5.3,0,10.6,1.4,14,5.8c3.2,4,3.2,11,3.2,15.8v17.1
		c0.2,7.9-1.1,11.6,8.2,12.1v2.4c-4.5-0.2-8.9-0.3-13.4-0.5c-4.5,0.2-8.9,0.3-13.4,0.5v-2.4c8.9-0.6,8.2-3.5,8.2-11.4v-15.1
		c0-8.4,1-20.3-11.1-20.3c-5,0-9.7,3.5-11.6,7.9c-1.6,3.5-1.6,7.9-1.6,12.4v14.5c0.2,7.9-1.3,11.6,8.2,12.1v2.4
		c-4.3-0.2-8.7-0.3-13-0.5c-4.5,0.2-9,0.3-13.5,0.5v-2.4c9-0.6,8.2-3.5,8.2-11.4v-15.1c0-8.4,1-20.3-11.1-20.3
		c-5,0-9.7,3.5-11.6,7.9c-1.6,3.5-1.6,7.9-1.6,12.4L123.7,413.6L123.7,413.6z"/>
	<path fill="#ABA7A5" d="M215.8,385h0.3c4.5-6.4,10-10,17.7-10c15.8,0,26.7,11.9,26.7,27.5c0,14.7-10.8,26.9-25.9,26.9
		c-7.1,0-12.1-2.1-17.2-6.9v23.4c0,8.7-0.8,11.8,9.2,12.2v2.4c-4.5-0.2-8.9-0.3-13.4-0.5c-4.8,0.2-9.7,0.3-14.3,0.5v-2.4
		c9-0.6,8.2-3.5,8.2-11.6v-47c0-3.4,0-11.8-0.6-14.5c-1-4.3-4.2-3.9-8.1-3.9v-2.4c6-0.8,11.9-2.4,17.4-3.7V385z M217.3,407.8
		c0,4,0,10,2.6,13c2.7,3.2,7.4,4.8,11.8,4.8c13,0,16.7-12.6,16.7-23.4c0-11-3.5-23.4-16.6-23.4c-5,0-9.7,2.6-12.1,6.9
		c-2.6,4.3-2.6,8.5-2.6,13.4v8.5H217.3z"/>
	<path fill="#ABA7A5" d="M314.7,419.2c-5.6,6.9-12.4,10.1-21.4,10.1c-14.8,0-27.1-10.5-27.1-25.8c0-15,11.4-28.5,27.1-28.5
		c11.8,0,22.9,6.6,22.9,19.6c0,1.6-1.8,1.1-3.1,1.1h-34.5l-0.5,5.8c0,11.4,6,24.2,18.8,24.2c6.1,0,11.6-4,15.1-8.9L314.7,419.2z
		 M299.2,392.5c1.9,0,6,0.6,6-2.4c0-7.4-4-12.2-11.6-12.2c-9,0-12.6,6.8-14,14.7H299.2z"/>
	<path fill="#ABA7A5" d="M338.7,413.6v-11.9c0-18.4-1.6-23.2-2.6-26.6c-5.3,1.1-10.6,3.4-16.3,3.7v2.4c3.9,0,6.9-0.5,7.9,3.9
		c0.8,2.7,0.6,11.3,0.6,14.5v14.8c0,7.9,0.6,10.8-8.4,11.4v2.3c4.7-0.2,9.2-0.3,13.9-0.5c4.5,0.2,9.2,0.3,13.9,0.5v-2.4
		C337.7,425.2,338.7,422.4,338.7,413.6"/>
	<path fill="#ABA7A5" d="M356.6,372.8c-11.1,0-13.9,12.9-15.8,21.4c1.8-6.9,5.8-19.2,14.7-19.2c1,0,2.3,0.6,2.3,1.4
		c0,2.1-5.8,2.7-5.8,9.3c0,3.9,3.2,7.4,7.1,7.4c5.8,0,9-4,9-9.7C368,377.2,362.9,372.8,356.6,372.8"/>
	<path fill="#ABA7A5" d="M482.7,420c-1.3,1.6-2.6,3.9-5,3.9c-4.7,0-4.2-8.9-4.2-11.9v-19.8c0-13.9-6.1-17.2-19.5-17.2
		c-4.2,0-13,0.8-18.2,4.2c2.3,0.6,4.2,1.9,5.8,3.5c1.1-4.5,5.6-5,11-5c9.8,0,10.6,5.8,10.6,13.9c0,1.3,0.2,2.9-1,3.5l-11.9,5.8
		c-7.7,3.5-19.2,7.7-19.2,17.9c0,6.8,6.1,10.6,12.6,10.6c7.4,0,14.3-4,20-8.5c1.1,4.8,5.5,8.5,10.3,8.5c4.5,0,8.9-4,10.8-8.1
		L482.7,420z M463.3,417.6c-3.4,3.2-8.5,6.8-13.2,6.8c-5,0-7.7-4.2-7.7-8.7c0-9.7,13.7-14.3,20.9-17.7V417.6z"/>
	<path fill="#ABA7A5" d="M390.7,377.6c0-5.2,2.4-10.5,7.7-10.5c5,0,6.4,4.7,6.4,8.4c0,5.6-2.4,11.3-6.9,14.7
		c5.3-1,11.6-5.3,11.6-11.4c0-7.7-6-14.3-15.3-14.3c-11.8,0-23,9.7-23,22.7c0,4,1,8.1,3.1,11.6c2.1,3.5,13.9,12.4,30.8,24.6
		c3.7,2.6,8.1,7.9,8.1,12.6c0,10.3-7.1,13.9-14.5,13.9h-1v1.6c1.9,0.2,4.2,0.3,6.1,0.3c11.4,0,25.4-6.1,25.4-25
		c0-12.4-7.7-19-16.9-25.9c-4.5-3.1-10-7.4-14.3-10.6C393.3,386.8,390.7,383.6,390.7,377.6"/>
	<path fill="#ABA7A5" d="M394.4,430.5c-9.3,0-24-11-24-20.9c0-3.5,1.1-9,4.2-11.1c-10.3,4.5-18.8,11.9-18.8,24.2
		c0,12.6,11.8,23.2,24,23.2c15.1,0,19.5-9.3,25.4-22.5C403.3,427.4,398.9,430.5,394.4,430.5"/>
	<path fill="#ABA7A5" d="M431.8,380.7c-11.1,0-13.9,12.9-15.8,21.4c1.8-6.9,5.8-19.2,14.7-19.2c1,0,2.3,0.6,2.3,1.4
		c0,2.1-5.8,2.7-5.8,9.3c0,3.9,3.2,7.4,7.1,7.4c5.8,0,9-4,9-9.7C443.2,385.2,438.1,380.7,431.8,380.7"/>
</g>
<text filter="url(#inset-shadow)" transform="matrix(1 0 0 1 98.853 353.9624)" fill="#ABA7A5" font-family="'Raleway'" font-size="26.7234">WORKING IN PARTNERSHIP WITH</text>
</svg>
