<!DOCTYPE svg PUBLIC "-//W3C//DTD SVG 1.1//EN" "http://www.w3.org/Graphics/SVG/1.1/DTD/svg11.dtd">
<svg version="1.1" id="Layer_1" xmlns="http://www.w3.org/2000/svg" xmlns:xlink="http://www.w3.org/1999/xlink" x="0px" y="0px"
	 viewBox="0 0 510.7 141.6" style="enable-background:new 0 0 510.7 141.6;" xml:space="preserve">
<style type="text/css">
	.st0{fill:none;}
	.st1{fill:#aba7a5;}
</style>
 <filter id="inset-shadow" x="-50%" y="-50%" width="200%" height="200%">
    <feComponentTransfer in="SourceAlpha">
      <feFuncA type="table" tableValues="1 0" />
    </feComponentTransfer>
    <feGaussianBlur stdDeviation="3"/>
    <feOffset dx="5" dy="5" result="offsetblur"/>
    <feFlood flood-color="rgb(50, 50, 50)" result="color"/>
    <feComposite in2="offsetblur" operator="in"/>
    <feComposite in2="SourceAlpha" operator="in" />
    <feMerge>
      <feMergeNode in="SourceGraphic" />
      <feMergeNode />
    </feMerge>
  </filter> 
<g filter="url(#inset-shadow)">
	<polygon class="st0" points="191.6,62.9 191.6,14.2 162,14.2 162,54.7 174,62.9 	"/>
	<polygon class="st0" points="236.6,73.3 236.6,127.7 266.6,127.7 266.6,81.2 254.5,73.3 	"/>
	<polygon class="st0" points="161.7,81.2 161.7,127.7 191.6,127.7 191.6,73.3 173.8,73.3 	"/>
	<path class="st0" d="M34.2,14.2H17.6v113.6h15.9c10.2,0,15.7-6.5,15.7-15V29C49.2,20.2,43.2,14.2,34.2,14.2z"/>
	<polygon class="st0" points="266.3,54.7 266.3,14.2 236.6,14.2 236.6,62.9 254.3,62.9 	"/>
	<rect x="311.6" y="14.2" class="st0" width="33" height="113.6"/>
	<polygon class="st1" points="97.9,3.2 73.9,138 73.9,138.3 85.3,138.3 103.8,24.6 121.7,138.3 133.5,138.3 133.5,138 109.7,3.2 	
		"/>
	<path class="st1" d="M36.5,3.6H5.6v134.7h30.9c14.8,0,24.7-10.8,24.7-24.3V27.9C61.2,14.5,51.6,3.6,36.5,3.6z M49.2,112.8
		c0,8.5-5.5,15-15.7,15H17.6V14.2h16.6c9,0,15,6,15,14.8V112.8z"/>
	<path class="st1" d="M150,13.1v40c0,4.1,1.2,6.5,4.4,8.5l9.9,6.2l-10.2,6.5c-3.2,2.1-4.4,4.6-4.4,8.6v45.9c0,5.6,3.9,9.5,9.5,9.5
		h44.4V3.6h-44.1C153.9,3.6,150,7.5,150,13.1z M191.6,127.7h-30V81.2l12.2-7.9h17.8V127.7z M162,14.2h29.6v48.7H174l-12-8.1V14.2z"
		/>
	<path class="st1" d="M274.2,74.3L264,67.8l9.9-6.2c3.2-1.9,4.4-4.4,4.4-8.5v-40c0-5.6-3.9-9.5-9.5-9.5h-44.1v134.7h44.4
		c5.6,0,9.5-3.9,9.5-9.5V83C278.6,78.9,277.4,76.4,274.2,74.3z M236.6,14.2h29.6v40.6l-12,8.1h-17.6V14.2z M266.6,127.7h-30V73.3
		h17.8l12.2,7.9V127.7z"/>
	<path class="st1" d="M346.9,3.6h-37.7c-5.6,0-9.5,3.9-9.5,9.5v115.7c0,5.6,3.9,9.5,9.5,9.5h37.7c5.6,0,9.7-3.9,9.7-9.5V13.1
		C356.6,7.5,352.5,3.6,346.9,3.6z M344.6,127.7h-33V14.2h33V127.7z"/>
	<path class="st1" d="M422,127.7h-31.9V3.6h-12v125.2c0,5.6,3.9,9.5,9.5,9.5h36.7c5.6,0,9.7-3.9,9.7-9.5V3.6h-12V127.7z"/>
	<path class="st1" d="M508.1,44.5V13.1c0-5.6-3.9-9.5-9.5-9.5h-33.9c-5.6,0-9.7,3.9-9.7,9.5v27.3c0,4.6,1.1,6.9,3.9,10.2l37.2,45
		v32.1H467V94.6h-12v34.2c0,5.6,4.1,9.5,9.7,9.5h33.9c5.6,0,9.5-3.9,9.5-9.5V97.6c0-4.4-0.9-6.7-3.7-10.1l-37.4-45V14.2h29.1v30.3
		H508.1z"/>
</g>
</svg>
